<svg width="54" height="54" viewBox="0 0 54 54" fill="none" xmlns="http://www.w3.org/2000/svg">
<path d="M27 0C41.904 0 54 12.096 54 27C54 41.904 41.904 54 27 54C12.096 54 0 41.904 0 27C0 12.096 12.096 0 27 0ZM10.8621 36.2232C14.8257 42.1362 20.7765 45.9 27.432 45.9C34.0848 45.9 40.0383 42.1389 43.9992 36.2232C39.5057 32.0236 33.5825 29.6914 27.432 29.7C21.2806 29.6907 15.3563 32.023 10.8621 36.2232ZM27 24.3C29.1483 24.3 31.2085 23.4466 32.7276 21.9276C34.2466 20.4085 35.1 18.3483 35.1 16.2C35.1 14.0517 34.2466 11.9915 32.7276 10.4724C31.2085 8.95339 29.1483 8.1 27 8.1C24.8517 8.1 22.7915 8.95339 21.2724 10.4724C19.7534 11.9915 18.9 14.0517 18.9 16.2C18.9 18.3483 19.7534 20.4085 21.2724 21.9276C22.7915 23.4466 24.8517 24.3 27 24.3Z" fill="white"/>
</svg>
